<?xml version="1.0" encoding="UTF-8"?>
<!DOCTYPE svg PUBLIC "-//W3C//DTD SVG 1.1//EN" "http://www.w3.org/Graphics/SVG/1.1/DTD/svg11.dtd">
<svg xmlns="http://www.w3.org/2000/svg" version="1.1" width="200px" height="200px" style="shape-rendering:geometricPrecision; text-rendering:geometricPrecision; image-rendering:optimizeQuality; fill-rule:evenodd; clip-rule:evenodd" xmlns:xlink="http://www.w3.org/1999/xlink">
<g><path style="opacity:1" fill="#2c977d" d="M -0.5,-0.5 C 66.1667,-0.5 132.833,-0.5 199.5,-0.5C 199.5,66.1667 199.5,132.833 199.5,199.5C 132.833,199.5 66.1667,199.5 -0.5,199.5C -0.5,132.833 -0.5,66.1667 -0.5,-0.5 Z"/></g>
<g><path style="opacity:1" fill="#f6fcfc" d="M 119.5,57.5 C 121.833,57.5 124.167,57.5 126.5,57.5C 126.171,70.0113 126.505,82.3446 127.5,94.5C 138.804,100.152 150.137,105.819 161.5,111.5C 160.253,113.323 159.586,115.323 159.5,117.5C 145.952,112.727 132.619,107.393 119.5,101.5C 119.5,86.8333 119.5,72.1667 119.5,57.5 Z"/></g>
<g><path style="opacity:1" fill="#bad8d0" d="M 119.5,57.5 C 121.948,56.5269 124.615,56.1936 127.5,56.5C 127.5,69.1667 127.5,81.8333 127.5,94.5C 126.505,82.3446 126.171,70.0113 126.5,57.5C 124.167,57.5 121.833,57.5 119.5,57.5 Z"/></g>
<g><path style="opacity:1" fill="#5c9988" d="M 119.5,101.5 C 132.619,107.393 145.952,112.727 159.5,117.5C 159.011,118.995 158.345,120.329 157.5,121.5C 157.426,119.589 156.426,118.422 154.5,118C 142.343,112.583 130.009,107.75 117.5,103.5C 118.167,102.833 118.833,102.167 119.5,101.5 Z"/></g>
<g><path style="opacity:1" fill="#f4fbfb" d="M 117.5,103.5 C 130.009,107.75 142.343,112.583 154.5,118C 156.426,118.422 157.426,119.589 157.5,121.5C 156.874,123.763 155.54,125.43 153.5,126.5C 142.048,122.023 130.548,117.69 119,113.5C 93.7813,122.526 68.6147,131.693 43.5,141C 39.8311,141.536 37.1645,140.036 35.5,136.5C 62.63,124.933 89.9633,113.933 117.5,103.5 Z"/></g>
</svg>
