<?xml version="1.0" standalone="no"?>
<!DOCTYPE svg PUBLIC "-//W3C//DTD SVG 20010904//EN"
 "http://www.w3.org/TR/2001/REC-SVG-20010904/DTD/svg10.dtd">
<svg version="1.0" xmlns="http://www.w3.org/2000/svg"
 width="200.000000pt" height="200.000000pt" viewBox="0 0 200.000000 200.000000"
 preserveAspectRatio="xMidYMid meet">

<g transform="translate(0.000000,200.000000) scale(0.100000,-0.100000)"
fill="#000000" stroke="none">
<path d="M0 1000 l0 -1000 1000 0 1000 0 0 1000 0 1000 -1000 0 -1000 0 0
-1000z m1180 436 c0 -3 -4 -8 -10 -11 -5 -3 -10 -1 -10 4 0 6 5 11 10 11 6 0
10 -2 10 -4z m101 -181 c1 -96 2 -181 3 -187 1 -15 97 -69 108 -62 4 3 8 0 8
-5 0 -17 17 -13 24 6 4 9 1 20 -6 25 -8 5 -9 8 -2 8 6 0 17 -7 24 -15 9 -10 9
-15 1 -15 -24 0 -9 -27 23 -42 26 -13 36 -14 45 -5 10 9 12 9 9 -3 -2 -9 16
-24 45 -40 41 -22 49 -23 58 -10 7 11 8 7 2 -15 -4 -16 -7 -38 -7 -47 0 -10
-4 -18 -9 -18 -5 0 -4 -7 3 -15 11 -13 10 -14 -2 -10 -21 8 -33 -41 -16 -63
10 -12 10 -14 1 -8 -7 4 -19 4 -25 -1 -15 -10 -51 -11 -58 -1 -3 3 -74 33
-158 67 -139 55 -182 64 -182 40 0 -4 -8 -6 -17 -3 -15 5 -15 3 2 -12 l20 -17
-20 8 c-11 4 -26 9 -32 12 -7 3 -13 0 -13 -6 0 -6 -7 -8 -17 -4 -10 4 -14 2
-10 -4 4 -6 1 -11 -6 -10 -38 1 -49 -4 -43 -19 5 -14 4 -15 -8 -5 -11 10 -20
10 -37 1 -15 -9 -18 -14 -10 -20 9 -5 8 -9 -4 -14 -10 -3 -23 -2 -30 4 -17 14
-69 -5 -59 -22 5 -10 4 -10 -6 -1 -10 9 -20 8 -44 -4 -17 -10 -35 -17 -41 -18
-24 -1 -125 -38 -125 -46 0 -4 -8 -7 -17 -7 -17 0 -204 -65 -227 -80 -17 -10
-37 -11 -31 -2 3 5 -7 21 -22 36 -19 19 -24 29 -14 32 11 4 11 6 0 14 -11 8
-10 9 3 4 21 -6 95 18 119 40 9 8 20 14 25 13 5 -1 21 1 36 5 23 7 27 13 24
32 -5 28 -3 29 28 8 16 -10 26 -12 31 -4 3 6 12 7 18 3 7 -4 5 2 -3 12 -14 17
-14 17 5 7 16 -8 29 -7 50 3 17 7 53 22 82 34 28 12 64 26 80 33 15 6 32 10
37 9 5 -1 4 4 -2 11 -8 11 -7 14 8 14 10 0 17 -3 14 -7 -2 -3 16 1 40 9 25 9
42 21 39 26 -4 5 1 7 9 3 9 -3 19 -3 23 1 4 4 10 7 13 8 4 0 19 4 35 8 29 9
35 21 15 30 -7 3 2 4 21 1 41 -5 67 7 74 35 5 19 -7 28 -16 13 -2 -5 -2 -2 -1
5 2 6 -2 12 -9 12 -9 0 -12 44 -12 174 0 96 4 171 8 167 4 -4 7 -81 5 -170 -2
-88 -2 -161 -1 -161 1 0 9 -3 18 -6 15 -6 16 10 15 172 -1 99 -1 191 -1 207 1
25 4 27 46 27 l45 0 1 -175z m57 -158 c-7 -8 -22 -12 -33 -9 -18 5 -18 6 5 13
38 11 42 10 28 -4z m-18 -37 c0 -5 -2 -10 -4 -10 -3 0 -8 5 -11 10 -3 6 -1 10
4 10 6 0 11 -4 11 -10z m33 -10 c3 -11 1 -18 -4 -14 -5 3 -9 12 -9 20 0 20 7
17 13 -6z m161 -29 c4 -5 -3 -7 -14 -4 -23 6 -26 13 -6 13 8 0 17 -4 20 -9z
m-8 -27 c19 -15 18 -15 -2 -5 -11 5 -32 8 -45 5 -21 -4 -22 -3 -4 5 27 13 29
13 51 -5z m-527 -75 c-13 -25 -15 -24 -15 5 0 15 5 22 13 19 9 -4 10 -10 2
-24z m687 9 c4 -7 3 -8 -4 -4 -14 8 -15 5 -6 -19 5 -11 9 -13 14 -5 4 6 7 -4
7 -22 1 -18 -2 -26 -4 -18 -3 8 -12 23 -21 32 -8 10 -12 24 -9 33 8 18 13 19
23 3z m-894 -61 c-14 -6 -26 -7 -32 -1 -5 5 4 9 23 10 30 1 30 1 9 -9z m93 -7
c3 -6 -1 -7 -9 -4 -18 7 -21 14 -7 14 6 0 13 -4 16 -10z m790 -11 c-5 -15 -4
-19 4 -15 16 10 14 -9 -3 -23 -20 -17 -29 2 -15 33 15 31 23 34 14 5z m-912
-10 c4 -3 2 -11 -6 -18 -12 -9 -14 -7 -14 14 0 14 2 22 6 18 3 -4 10 -10 14
-14z m80 14 c-7 -2 -19 -2 -25 0 -7 3 -2 5 12 5 14 0 19 -2 13 -5z m407 -25
c10 -3 7 -6 -9 -11 -13 -3 -20 -3 -17 0 3 4 0 13 -7 22 -10 14 -10 14 3 5 8
-6 22 -13 30 -16z m-420 8 c0 -2 -9 -6 -20 -9 -11 -3 -20 -1 -20 4 0 5 9 9 20
9 11 0 20 -2 20 -4z m475 -26 c3 -6 -1 -7 -9 -4 -18 7 -21 14 -7 14 6 0 13 -4
16 -10z m-665 -40 c0 -5 -5 -10 -11 -10 -5 0 -7 5 -4 10 3 6 8 10 11 10 2 0 4
-4 4 -10z m420 -27 c0 -1 -7 1 -17 4 -12 5 -14 3 -8 -8 4 -8 4 -11 0 -6 -5 4
-10 16 -12 27 -3 19 -2 19 17 3 11 -10 20 -19 20 -20z m351 19 c-7 -2 -18 1
-23 6 -8 8 -4 9 13 5 13 -4 18 -8 10 -11z m12 -19 c3 -5 -6 -8 -19 -8 -13 0
-24 3 -24 8 0 4 9 7 19 7 11 0 22 -3 24 -7z m56 -16 c0 -9 -2 -8 -6 1 -2 6
-10 9 -15 6 -7 -4 -8 -2 -4 5 9 13 26 5 25 -12z m-1109 -17 c8 -5 11 -10 5
-10 -5 0 -17 5 -25 10 -8 5 -10 10 -5 10 6 0 17 -5 25 -10z m70 -25 c-7 -8
-20 -14 -29 -14 -13 1 -13 2 2 6 9 2 17 9 17 14 0 5 5 9 11 9 8 0 8 -5 -1 -15z
m-85 -45 c3 -5 1 -10 -4 -10 -6 0 -11 5 -11 10 0 6 2 10 4 10 3 0 8 -4 11 -10z
m275 -14 c0 -3 -4 -8 -10 -11 -5 -3 -10 -1 -10 4 0 6 5 11 10 11 6 0 10 -2 10
-4z m-261 -45 c-7 -2 -6 -7 2 -12 10 -6 10 -9 2 -9 -7 0 -17 10 -24 21 -8 15
-8 19 0 15 6 -4 11 -1 11 6 0 9 3 9 10 -2 6 -10 6 -16 -1 -19z m281 12 c2 -2
-15 -2 -38 -1 -23 2 -42 7 -42 11 0 7 70 -1 80 -10z m-140 -13 c-8 -5 -19 -10
-25 -10 -5 0 -3 5 5 10 8 5 20 10 25 10 6 0 3 -5 -5 -10z m30 -10 c-8 -5 -19
-10 -25 -10 -5 0 -3 5 5 10 8 5 20 10 25 10 6 0 3 -5 -5 -10z m100 6 c0 -2 -7
-6 -15 -10 -8 -3 -15 -1 -15 4 0 6 7 10 15 10 8 0 15 -2 15 -4z"/>
<path d="M1220 960 c8 -5 20 -10 25 -10 6 0 3 5 -5 10 -8 5 -19 10 -25 10 -5
0 -3 -5 5 -10z"/>
<path d="M1290 930 c8 -5 20 -10 25 -10 6 0 3 5 -5 10 -8 5 -19 10 -25 10 -5
0 -3 -5 5 -10z"/>
<path d="M1350 905 c14 -8 30 -14 35 -14 6 0 -1 6 -15 14 -14 8 -29 14 -35 14
-5 0 1 -6 15 -14z"/>
<path d="M1410 880 c8 -5 20 -10 25 -10 6 0 3 5 -5 10 -8 5 -19 10 -25 10 -5
0 -3 -5 5 -10z"/>
<path d="M950 760 c0 -5 5 -10 11 -10 5 0 7 5 4 10 -3 6 -8 10 -11 10 -2 0 -4
-4 -4 -10z"/>
<path d="M575 740 c3 -5 11 -10 16 -10 6 0 7 5 4 10 -3 6 -11 10 -16 10 -6 0
-7 -4 -4 -10z"/>
</g>
</svg>
