<?xml version="1.0" encoding="UTF-8"?>
<!DOCTYPE svg PUBLIC "-//W3C//DTD SVG 1.1//EN" "http://www.w3.org/Graphics/SVG/1.1/DTD/svg11.dtd">
<svg xmlns="http://www.w3.org/2000/svg" version="1.1" width="1050px" height="682px" style="shape-rendering:geometricPrecision; text-rendering:geometricPrecision; image-rendering:optimizeQuality; fill-rule:evenodd; clip-rule:evenodd" xmlns:xlink="http://www.w3.org/1999/xlink">
<g><path style="opacity:0.875" fill="#000000" d="M 244.5,134.5 C 247.5,134.5 250.5,134.5 253.5,134.5C 253.334,142.84 253.5,151.173 254,159.5C 258.838,165.036 263.171,164.703 267,158.5C 267.5,150.507 267.666,142.507 267.5,134.5C 270.5,134.5 273.5,134.5 276.5,134.5C 276.886,143.9 276.386,153.234 275,162.5C 272.217,169.063 267.217,172.063 260,171.5C 253.65,171.661 248.983,168.995 246,163.5C 244.58,153.914 244.08,144.247 244.5,134.5 Z"/></g>
<g><path style="opacity:0.918" fill="#000000" d="M 295.5,134.5 C 298.187,134.336 300.854,134.503 303.5,135C 308.667,141.5 313.833,148 319,154.5C 319.5,147.842 319.666,141.175 319.5,134.5C 322.167,134.5 324.833,134.5 327.5,134.5C 327.5,146.5 327.5,158.5 327.5,170.5C 324.813,170.664 322.146,170.497 319.5,170C 314.301,163.768 309.468,157.268 305,150.5C 304.5,157.158 304.334,163.825 304.5,170.5C 301.5,170.5 298.5,170.5 295.5,170.5C 295.5,158.5 295.5,146.5 295.5,134.5 Z"/></g>
<g><path style="opacity:0.871" fill="#000000" d="M 348.5,134.5 C 351.5,134.5 354.5,134.5 357.5,134.5C 357.5,146.5 357.5,158.5 357.5,170.5C 354.5,170.5 351.5,170.5 348.5,170.5C 348.5,158.5 348.5,146.5 348.5,134.5 Z"/></g>
<g><path style="opacity:0.865" fill="#000000" d="M 375.5,134.5 C 378.833,134.5 382.167,134.5 385.5,134.5C 387.644,142.434 390.478,150.101 394,157.5C 396.667,150.167 399.333,142.833 402,135.5C 405.057,134.549 408.223,134.216 411.5,134.5C 407.432,146.701 402.765,158.701 397.5,170.5C 394.833,171.833 392.167,171.833 389.5,170.5C 384.259,158.691 379.592,146.691 375.5,134.5 Z"/></g>
<g><path style="opacity:0.928" fill="#000000" d="M 429.5,134.5 C 438.5,134.5 447.5,134.5 456.5,134.5C 456.5,137.167 456.5,139.833 456.5,142.5C 450.167,142.5 443.833,142.5 437.5,142.5C 437.5,144.5 437.5,146.5 437.5,148.5C 443.167,148.5 448.833,148.5 454.5,148.5C 454.5,151.167 454.5,153.833 454.5,156.5C 448.833,156.5 443.167,156.5 437.5,156.5C 437.5,158.833 437.5,161.167 437.5,163.5C 443.833,163.5 450.167,163.5 456.5,163.5C 456.5,165.833 456.5,168.167 456.5,170.5C 447.5,170.5 438.5,170.5 429.5,170.5C 429.5,158.5 429.5,146.5 429.5,134.5 Z"/></g>
<g><path style="opacity:0.931" fill="#000000" d="M 476.5,134.5 C 484.238,134.144 491.905,134.644 499.5,136C 506.33,140.161 508.164,145.995 505,153.5C 503.316,155.351 501.483,157.018 499.5,158.5C 502.043,162.421 504.71,166.254 507.5,170C 503.789,170.825 500.122,170.659 496.5,169.5C 494.5,166.5 492.5,163.5 490.5,160.5C 488.604,159.534 486.604,159.201 484.5,159.5C 484.5,163.167 484.5,166.833 484.5,170.5C 481.833,170.5 479.167,170.5 476.5,170.5C 476.5,158.5 476.5,146.5 476.5,134.5 Z M 484.5,142.5 C 487.518,142.335 490.518,142.502 493.5,143C 497.795,144.845 498.462,147.512 495.5,151C 491.848,151.499 488.182,151.665 484.5,151.5C 484.5,148.5 484.5,145.5 484.5,142.5 Z"/></g>
<g><path style="opacity:0.881" fill="#000000" d="M 532.5,134.5 C 535.85,134.335 539.183,134.502 542.5,135C 551.39,136.33 552.557,139.83 546,145.5C 542.537,143.014 538.704,142.18 534.5,143C 533.167,144.333 533.167,145.667 534.5,147C 540.129,148.191 545.296,150.358 550,153.5C 553.297,167.21 547.797,173.043 533.5,171C 529.873,170.436 526.707,168.936 524,166.5C 523.94,163.352 525.44,161.019 528.5,159.5C 533.28,163.927 538.28,164.427 543.5,161C 542.833,159.667 541.833,158.667 540.5,158C 536.363,157.066 532.363,155.732 528.5,154C 522.243,145.857 523.576,139.357 532.5,134.5 Z"/></g>
<g><path style="opacity:0.979" fill="#000000" d="M 571.5,134.5 C 574.167,134.5 576.833,134.5 579.5,134.5C 579.5,146.5 579.5,158.5 579.5,170.5C 576.833,170.5 574.167,170.5 571.5,170.5C 571.5,158.5 571.5,146.5 571.5,134.5 Z"/></g>
<g><path style="opacity:0.861" fill="#000000" d="M 598.5,134.5 C 608.5,134.5 618.5,134.5 628.5,134.5C 628.5,137.5 628.5,140.5 628.5,143.5C 624.833,143.5 621.167,143.5 617.5,143.5C 617.5,152.5 617.5,161.5 617.5,170.5C 614.5,170.5 611.5,170.5 608.5,170.5C 608.5,161.5 608.5,152.5 608.5,143.5C 605.167,143.5 601.833,143.5 598.5,143.5C 598.5,140.5 598.5,137.5 598.5,134.5 Z"/></g>
<g><path style="opacity:0.867" fill="#000000" d="M 642.5,134.5 C 645.85,134.335 649.183,134.502 652.5,135C 655.333,139.167 658.167,143.333 661,147.5C 663.698,143.633 666.198,139.633 668.5,135.5C 671.833,134.167 675.167,134.167 678.5,135.5C 674.584,142.335 670.417,149.002 666,155.5C 665.501,160.489 665.334,165.489 665.5,170.5C 662.5,170.5 659.5,170.5 656.5,170.5C 656.666,165.821 656.499,161.155 656,156.5C 651.227,149.278 646.727,141.945 642.5,134.5 Z"/></g>
<g><path style="opacity:0.898" fill="#000000" d="M 734.5,134.5 C 749.337,132.196 757.671,138.363 759.5,153C 757.843,167.184 749.843,173.184 735.5,171C 721.316,165.121 717.816,155.288 725,141.5C 727.79,138.535 730.957,136.202 734.5,134.5 Z M 737.5,142.5 C 746.802,142.634 750.969,147.3 750,156.5C 746.865,162.989 742.032,164.823 735.5,162C 728.363,154.664 729.03,148.164 737.5,142.5 Z"/></g>
<g><path style="opacity:0.896" fill="#000000" d="M 775.5,134.5 C 784.833,134.5 794.167,134.5 803.5,134.5C 803.5,137.167 803.5,139.833 803.5,142.5C 797.167,142.5 790.833,142.5 784.5,142.5C 784.5,144.833 784.5,147.167 784.5,149.5C 789.833,149.5 795.167,149.5 800.5,149.5C 800.5,152.167 800.5,154.833 800.5,157.5C 795.167,157.5 789.833,157.5 784.5,157.5C 784.5,161.833 784.5,166.167 784.5,170.5C 781.5,170.5 778.5,170.5 775.5,170.5C 775.5,158.5 775.5,146.5 775.5,134.5 Z"/></g>
<g><path style="opacity:0.944" fill="#000000" d="M 202.5,192.5 C 208.758,192.19 214.924,192.524 221,193.5C 226.155,209.787 231.155,226.12 236,242.5C 242.006,225.982 247.506,209.315 252.5,192.5C 257.833,192.5 263.167,192.5 268.5,192.5C 273.494,209.315 278.994,225.982 285,242.5C 290,226.167 295,209.833 300,193.5C 306.076,192.524 312.242,192.19 318.5,192.5C 310.506,218.316 302.006,243.982 293,269.5C 287.593,270.473 282.093,270.807 276.5,270.5C 271.691,254.571 266.191,238.905 260,223.5C 254.667,238.833 249.333,254.167 244,269.5C 238.593,270.473 233.093,270.807 227.5,270.5C 218.765,244.628 210.432,218.628 202.5,192.5 Z"/></g>
<g><path style="opacity:0.944" fill="#000000" d="M 344.5,192.5 C 350.093,192.193 355.593,192.527 361,193.5C 371.704,219.073 382.538,244.573 393.5,270C 387.141,270.831 380.807,270.664 374.5,269.5C 372.26,264.274 369.926,259.107 367.5,254C 357.167,253.333 346.833,253.333 336.5,254C 334.361,259.416 332.028,264.749 329.5,270C 323.472,270.83 317.472,270.664 311.5,269.5C 322.312,243.722 333.312,218.055 344.5,192.5 Z M 351.5,215.5 C 354.912,222.539 358.245,229.706 361.5,237C 355.472,237.83 349.472,237.664 343.5,236.5C 346.464,229.579 349.131,222.579 351.5,215.5 Z"/></g>
<g><path style="opacity:0.95" fill="#000000" d="M 708.5,192.5 C 726.408,189.851 740.908,195.518 752,209.5C 762.068,228.579 759.901,246.079 745.5,262C 731.754,271.854 716.754,274.187 700.5,269C 681.718,259.606 673.885,244.439 677,223.5C 681.449,206.884 691.949,196.55 708.5,192.5 Z M 713.5,208.5 C 732.106,209.273 740.606,218.94 739,237.5C 735.218,250.944 726.385,256.777 712.5,255C 697.976,249.788 692.476,239.621 696,224.5C 698.882,215.828 704.715,210.495 713.5,208.5 Z"/></g>
<g><path style="opacity:0.948" fill="#000000" d="M 796.5,192.5 C 829.684,190.19 846.184,205.524 846,238.5C 842.704,255.796 832.537,266.629 815.5,271C 789.182,275.275 772.349,264.775 765,239.5C 762.681,215.022 773.181,199.356 796.5,192.5 Z M 801.5,208.5 C 820.605,209.441 829.105,219.441 827,238.5C 822.746,251.216 813.913,256.716 800.5,255C 785.503,248.839 780.336,238.006 785,222.5C 788.54,215.455 794.04,210.788 801.5,208.5 Z"/></g>
<g><path style="opacity:0.964" fill="#000000" d="M 387.5,193.5 C 408.833,193.5 430.167,193.5 451.5,193.5C 451.5,198.833 451.5,204.167 451.5,209.5C 443.833,209.5 436.167,209.5 428.5,209.5C 428.5,229.833 428.5,250.167 428.5,270.5C 422.5,270.5 416.5,270.5 410.5,270.5C 410.5,250.167 410.5,229.833 410.5,209.5C 402.833,209.5 395.167,209.5 387.5,209.5C 387.5,204.167 387.5,198.833 387.5,193.5 Z"/></g>
<g><path style="opacity:0.961" fill="#000000" d="M 463.5,193.5 C 482.833,193.5 502.167,193.5 521.5,193.5C 521.5,198.833 521.5,204.167 521.5,209.5C 507.833,209.5 494.167,209.5 480.5,209.5C 480.5,214.167 480.5,218.833 480.5,223.5C 492.5,223.5 504.5,223.5 516.5,223.5C 516.5,228.833 516.5,234.167 516.5,239.5C 504.5,239.5 492.5,239.5 480.5,239.5C 480.5,244.5 480.5,249.5 480.5,254.5C 494.5,254.5 508.5,254.5 522.5,254.5C 522.5,259.833 522.5,265.167 522.5,270.5C 502.833,270.5 483.167,270.5 463.5,270.5C 463.5,244.833 463.5,219.167 463.5,193.5 Z"/></g>
<g><path style="opacity:0.964" fill="#000000" d="M 539.5,193.5 C 555.216,193.08 570.883,193.58 586.5,195C 600.789,200.74 606.289,211.24 603,226.5C 600.885,234.451 596.052,240.118 588.5,243.5C 594.304,252.47 600.304,261.304 606.5,270C 599.144,270.831 591.811,270.665 584.5,269.5C 579.376,262.086 574.376,254.586 569.5,247C 565.179,246.501 560.846,246.334 556.5,246.5C 556.5,254.5 556.5,262.5 556.5,270.5C 550.833,270.5 545.167,270.5 539.5,270.5C 539.5,244.833 539.5,219.167 539.5,193.5 Z M 556.5,209.5 C 564.253,209.104 571.92,209.604 579.5,211C 587.092,216.508 587.425,222.508 580.5,229C 572.585,230.401 564.585,230.901 556.5,230.5C 556.5,223.5 556.5,216.5 556.5,209.5 Z"/></g>
<g><path style="opacity:0.961" fill="#000000" d="M 621.5,193.5 C 627.5,193.5 633.5,193.5 639.5,193.5C 639.5,213.833 639.5,234.167 639.5,254.5C 651.167,254.5 662.833,254.5 674.5,254.5C 674.5,259.833 674.5,265.167 674.5,270.5C 656.833,270.5 639.167,270.5 621.5,270.5C 621.5,244.833 621.5,219.167 621.5,193.5 Z"/></g>
<g><path style="opacity:0.926" fill="#fbfbfb" d="M 411.5,295.5 C 486.5,295.5 561.5,295.5 636.5,295.5C 636.681,332.645 634.514,369.645 630,406.5C 623.747,452.5 604.581,492 572.5,525C 557.893,537.599 541.727,547.765 524,555.5C 481.655,537.488 451.655,507.154 434,464.5C 420.66,430.801 413.66,395.801 413,359.5C 412.053,338.176 411.553,316.843 411.5,295.5 Z"/></g>
<g><path style="opacity:1" fill="#0b0a08" d="M 418.5,304.5 C 488.167,304.5 557.833,304.5 627.5,304.5C 627.457,335.905 625.957,367.238 623,398.5C 618.67,431.496 608.003,462.163 591,490.5C 574.175,516.153 551.675,535.153 523.5,547.5C 485.829,530.663 458.663,503.329 442,465.5C 428.382,432.188 421.049,397.522 420,361.5C 419.55,342.496 419.05,323.496 418.5,304.5 Z"/></g>
<g><path style="opacity:1" fill="#7b6826" d="M 623.5,309.5 C 556.833,309.5 490.167,309.5 423.5,309.5C 423.5,317.5 423.5,325.5 423.5,333.5C 422.507,325.35 422.174,317.017 422.5,308.5C 489.669,308.168 556.669,308.501 623.5,309.5 Z"/></g>
<g><path style="opacity:1" fill="#fdd34e" d="M 623.5,309.5 C 623.691,346.417 620.858,383.084 615,419.5C 613.153,426.556 611.153,433.556 609,440.5C 580.932,417.263 552.432,394.596 523.5,372.5C 494.523,394.976 465.69,417.643 437,440.5C 427.573,405.494 423.073,369.827 423.5,333.5C 423.5,325.5 423.5,317.5 423.5,309.5C 490.167,309.5 556.833,309.5 623.5,309.5 Z"/></g>
<g><path style="opacity:1" fill="#ba1f35" d="M 603.5,314.5 C 612.192,314.701 615.359,319.035 613,327.5C 609.684,332.772 608.017,338.439 608,344.5C 608.667,343.167 609.333,341.833 610,340.5C 610.654,339.304 611.154,339.304 611.5,340.5C 610.189,345.987 610.189,351.487 611.5,357C 610.359,359.449 609.359,361.949 608.5,364.5C 611.317,371.058 611.817,377.724 610,384.5C 607.592,387.62 604.426,388.953 600.5,388.5C 600.496,393.005 602.663,396.005 607,397.5C 607.167,398.667 607.333,399.833 607.5,401C 605.93,405.716 604.763,410.549 604,415.5C 603.581,416.672 602.915,417.672 602,418.5C 600.551,414.699 598.717,414.533 596.5,418C 594.527,418.495 592.527,418.662 590.5,418.5C 590.33,417.178 590.663,416.011 591.5,415C 590.207,414.51 588.873,414.343 587.5,414.5C 587.5,412.833 587.5,411.167 587.5,409.5C 592.421,409.865 592.755,408.865 588.5,406.5C 592.7,402.129 595.034,403.129 595.5,409.5C 596.822,409.67 597.989,409.337 599,408.5C 601.524,404.096 600.69,400.596 596.5,398C 592.167,397.667 587.833,397.333 583.5,397C 580.572,393.743 579.738,389.909 581,385.5C 583.079,383.21 585.579,381.543 588.5,380.5C 584.187,374.353 579.02,369.02 573,364.5C 572.126,361.621 572.46,358.955 574,356.5C 574.739,357.574 575.739,358.241 577,358.5C 580.373,354.383 584.54,353.05 589.5,354.5C 590.258,366.663 594.758,376.996 603,385.5C 605.459,385.11 607.126,383.776 608,381.5C 608.667,378.833 608.667,376.167 608,373.5C 605.946,368.268 603.612,368.268 601,373.5C 599.336,370.711 599.17,367.877 600.5,365C 602.134,364.506 603.801,364.34 605.5,364.5C 602.575,352.495 603.242,340.662 607.5,329C 606.73,326.022 605.063,325.189 602.5,326.5C 600.718,342.413 599.051,342.246 597.5,326C 597.025,320.781 599.025,316.948 603.5,314.5 Z"/></g>
<g><path style="opacity:1" fill="#bc2635" d="M 481.5,316.5 C 484.301,318.617 484.135,320.617 481,322.5C 482.417,326.191 481.584,329.357 478.5,332C 473.341,334.416 468.008,334.916 462.5,333.5C 468.272,332.948 470.272,329.948 468.5,324.5C 465.966,323.223 463.466,323.223 461,324.5C 460.316,323.216 460.483,322.049 461.5,321C 464.244,320.197 466.911,319.197 469.5,318C 472.536,317.362 475.536,317.528 478.5,318.5C 480.038,318.547 481.038,317.88 481.5,316.5 Z"/></g>
<g><path style="opacity:1" fill="#bc2836" d="M 577.5,317.5 C 581.164,317.36 584.664,318.027 588,319.5C 589.825,319.057 591.658,318.723 593.5,318.5C 593.978,321.278 592.978,323.278 590.5,324.5C 589.846,326.115 589.346,327.782 589,329.5C 583.585,334.511 577.418,335.677 570.5,333C 571.949,331.883 573.616,331.216 575.5,331C 579.53,323.679 577.53,321.179 569.5,323.5C 569.281,322.325 569.614,321.325 570.5,320.5C 573.127,319.942 575.46,318.942 577.5,317.5 Z"/></g>
<g><path style="opacity:1" fill="#ba2135" d="M 433.5,317.5 C 436.642,317.799 438.809,319.466 440,322.5C 441.188,321.437 441.688,320.103 441.5,318.5C 442.822,318.33 443.989,318.663 445,319.5C 445.252,331.76 451.418,339.26 463.5,342C 462.128,343.242 461.128,344.742 460.5,346.5C 458.579,347.641 456.579,347.808 454.5,347C 452.844,345.171 450.844,343.837 448.5,343C 446.919,341.172 445.585,339.172 444.5,337C 443.552,336.517 442.552,336.351 441.5,336.5C 441.325,331.548 438.658,329.048 433.5,329C 430.751,326.81 431.085,325.143 434.5,324C 432.316,322.102 431.983,319.936 433.5,317.5 Z"/></g>
<g><path style="opacity:1" fill="#b91e35" d="M 511.5,319.5 C 520.47,320.042 529.137,322.042 537.5,325.5C 533.036,330.493 527.369,332.66 520.5,332C 521.167,333.333 521.833,334.667 522.5,336C 522.167,336.167 521.833,336.333 521.5,336.5C 509.7,329.463 503.2,332.797 502,346.5C 502.333,346.833 502.667,347.167 503,347.5C 504.309,345.024 506.142,343.024 508.5,341.5C 511.166,343.896 511,346.229 508,348.5C 507.787,354.634 506.787,360.634 505,366.5C 503.076,371.922 499.243,374.922 493.5,375.5C 491.712,380.861 488.046,382.861 482.5,381.5C 483.436,384.959 485.436,387.793 488.5,390C 480.821,393.344 474.654,398.511 470,405.5C 469.311,404.643 468.478,403.977 467.5,403.5C 465.836,407.036 463.169,408.536 459.5,408C 458.14,406.062 458.473,404.396 460.5,403C 456.666,403.556 455.666,401.889 457.5,398C 458.833,397.333 460.167,396.667 461.5,396C 459.043,394.846 459.043,393.512 461.5,392C 464.191,392.468 466.858,393.302 469.5,394.5C 480.682,391.759 481.015,388.925 470.5,386C 465.636,381.965 465.302,377.632 469.5,373C 472.43,371.341 475.43,371.008 478.5,372C 475.282,369.223 471.615,367.223 467.5,366C 464.936,363.724 465.27,361.724 468.5,360C 473.951,359.756 479.284,358.923 484.5,357.5C 485.311,364.476 488.978,369.143 495.5,371.5C 501.277,369.536 503.444,365.536 502,359.5C 499.757,358.029 497.257,357.029 494.5,356.5C 495.999,353.667 498.333,352.001 501.5,351.5C 496.016,343.377 496.182,335.377 502,327.5C 504.772,324.217 507.939,321.55 511.5,319.5 Z"/></g>
<g><path style="opacity:1" fill="#fcd04e" d="M 578.5,319.5 C 583.662,321.138 583.329,321.638 577.5,321C 578.056,320.617 578.389,320.117 578.5,319.5 Z"/></g>
<g><path style="opacity:1" fill="#fcd04e" d="M 470.5,319.5 C 474.075,320.207 474.242,321.207 471,322.5C 469.317,321.824 469.15,320.824 470.5,319.5 Z"/></g>
<g><path style="opacity:1" fill="#ba2035" d="M 552.5,320.5 C 554.144,320.286 555.644,320.62 557,321.5C 556.943,326.005 558.443,329.839 561.5,333C 565.336,335.084 569.003,337.417 572.5,340C 570.641,341.558 569.141,343.391 568,345.5C 565.479,342.648 562.313,341.148 558.5,341C 559.876,338.46 559.21,336.46 556.5,335C 553.549,335.399 550.549,335.899 547.5,336.5C 547.5,334.833 547.5,333.167 547.5,331.5C 548.675,331.719 549.675,331.386 550.5,330.5C 548.518,329.784 546.851,328.617 545.5,327C 547.055,324.535 549.055,324.035 551.5,325.5C 552.452,323.955 552.785,322.288 552.5,320.5 Z"/></g>
<g><path style="opacity:1" fill="#b91c34" d="M 483.5,323.5 C 488.06,328.606 489.56,334.606 488,341.5C 486.963,344.276 486.13,347.11 485.5,350C 485.615,351.895 486.282,353.562 487.5,355C 485.765,355.651 484.098,355.485 482.5,354.5C 481.833,355.167 481.167,355.833 480.5,356.5C 479.452,355.617 478.285,354.95 477,354.5C 472.931,357.19 468.431,358.69 463.5,359C 462.953,359.925 462.287,360.758 461.5,361.5C 459.144,353.068 461.477,346.234 468.5,341C 472.577,339.213 476.41,337.046 480,334.5C 482.467,331.266 483.633,327.599 483.5,323.5 Z"/></g>
<g><path style="opacity:1" fill="#bc2636" d="M 561.5,326.5 C 563.304,325.838 565.304,325.505 567.5,325.5C 576.14,325.767 576.474,327.101 568.5,329.5C 565.782,329.305 563.449,328.305 561.5,326.5 Z"/></g>
<g><path style="opacity:1" fill="#b81b34" d="M 592.5,326.5 C 593.497,326.47 594.164,326.97 594.5,328C 595.037,329.792 595.37,331.625 595.5,333.5C 594.015,340.109 592.848,346.776 592,353.5C 586.323,350.383 581.157,351.049 576.5,355.5C 574.333,354.052 572,352.885 569.5,352C 568.446,350.612 568.28,349.112 569,347.5C 574.085,340.863 580.585,336.03 588.5,333C 590.221,331.056 591.554,328.89 592.5,326.5 Z"/></g>
<g><path style="opacity:1" fill="#c03437" d="M 457.5,326.5 C 461.122,325.924 464.122,326.924 466.5,329.5C 462.922,330.875 459.256,331.375 455.5,331C 454.328,330.581 453.328,329.915 452.5,329C 454.491,328.626 456.158,327.793 457.5,326.5 Z"/></g>
<g><path style="opacity:1" fill="#bb2435" d="M 546.5,341.5 C 548.144,341.286 549.644,341.62 551,342.5C 552.668,353.659 559.168,358.659 570.5,357.5C 570.335,360.518 570.502,363.518 571,366.5C 572.338,367.224 572.505,367.89 571.5,368.5C 565.793,365.761 560.126,363.094 554.5,360.5C 554.5,359.5 554.5,358.5 554.5,357.5C 552.801,357.34 551.134,357.506 549.5,358C 545.29,363.139 543.123,362.639 543,356.5C 546.342,353.646 545.842,352.979 541.5,354.5C 538.879,352.795 538.212,350.628 539.5,348C 541.898,347.626 544.231,347.626 546.5,348C 545.232,345.837 545.232,343.67 546.5,341.5 Z"/></g>
<g><path style="opacity:1" fill="#bb2235" d="M 433.5,342.5 C 437.896,342.882 440.896,345.215 442.5,349.5C 447.196,352.503 452.196,353.17 457.5,351.5C 458.48,354.086 458.813,356.753 458.5,359.5C 454.907,359.359 451.407,358.692 448,357.5C 446.105,357.615 444.438,358.282 443,359.5C 442.517,358.552 442.351,357.552 442.5,356.5C 439.5,357.167 436.5,357.833 433.5,358.5C 433.357,356.738 433.691,355.071 434.5,353.5C 432.947,352.561 431.613,351.394 430.5,350C 432.628,348.013 433.628,345.513 433.5,342.5 Z"/></g>
<g><path style="opacity:1" fill="#bc2836" d="M 458.5,366.5 C 462.495,365.883 465.828,367.049 468.5,370C 463.79,373.351 462.456,377.684 464.5,383C 459.82,382.957 455.487,384.124 451.5,386.5C 451.089,385.738 450.923,384.738 451,383.5C 450.439,382.978 449.772,382.645 449,382.5C 446.912,384.463 444.412,385.796 441.5,386.5C 439.404,385.38 439.07,383.88 440.5,382C 435.759,383.039 434.426,381.206 436.5,376.5C 437.795,375.902 439.128,375.402 440.5,375C 437.833,372.147 438.5,370.313 442.5,369.5C 443.772,369.57 444.938,369.903 446,370.5C 446.797,373.22 447.963,375.72 449.5,378C 451.5,378.667 453.5,378.667 455.5,378C 455.964,375.595 456.131,373.095 456,370.5C 456.662,369.016 457.496,367.683 458.5,366.5 Z"/></g>
<g><path style="opacity:1" fill="#bb2335" d="M 575.5,374.5 C 579.111,374.639 581.777,376.306 583.5,379.5C 581.476,381.69 579.643,384.023 578,386.5C 577.505,388.473 577.338,390.473 577.5,392.5C 573.471,392.149 569.638,392.815 566,394.5C 563.446,392.061 560.946,392.061 558.5,394.5C 556.999,391.516 554.999,388.85 552.5,386.5C 553.364,384.803 554.697,383.637 556.5,383C 555.044,382.577 554.544,381.744 555,380.5C 557.075,378.352 559.408,378.018 562,379.5C 562.302,385.137 565.135,387.97 570.5,388C 571,387.5 571.5,387 572,386.5C 571.761,381.948 572.928,377.948 575.5,374.5 Z"/></g>
<g><path style="opacity:1" fill="#fafafa" d="M 521.5,388.5 C 523.308,388.491 524.975,388.991 526.5,390C 552.167,410.5 577.833,431 603.5,451.5C 604.614,452.723 604.781,454.056 604,455.5C 602.274,459.953 600.274,464.286 598,468.5C 573.345,448.346 548.345,428.679 523,409.5C 498.557,428.272 474.39,447.439 450.5,467C 449.216,467.684 448.049,467.517 447,466.5C 444.704,461.939 443.037,457.272 442,452.5C 468.688,431.303 495.188,409.969 521.5,388.5 Z"/></g>
<g><path style="opacity:1" fill="#fcd24e" d="M 521.5,425.5 C 522.873,425.343 524.207,425.51 525.5,426C 546.212,443.047 567.212,459.714 588.5,476C 589.899,477.062 590.899,478.395 591.5,480C 575.67,508.496 552.836,529.33 523,542.5C 493.164,529.33 470.33,508.496 454.5,480C 476.672,461.664 499.005,443.498 521.5,425.5 Z"/></g>
<g><path style="opacity:1" fill="#ba2035" d="M 535.5,439.5 C 536.573,440.251 536.74,441.251 536,442.5C 533.832,445.686 531.665,448.853 529.5,452C 524.825,454.784 519.825,456.117 514.5,456C 518.444,454.035 519.444,451.035 517.5,447C 515.687,447.046 514.021,446.88 512.5,446.5C 512.977,445.522 513.643,444.689 514.5,444C 516.974,443.887 518.974,442.887 520.5,441C 524.362,440.355 528.196,440.521 532,441.5C 533.699,441.613 534.866,440.947 535.5,439.5 Z"/></g>
<g><path style="opacity:1" fill="#f8c44c" d="M 522.5,442.5 C 523.675,442.281 524.675,442.614 525.5,443.5C 524.277,444.614 522.944,444.781 521.5,444C 522.056,443.617 522.389,443.117 522.5,442.5 Z"/></g>
<g><path style="opacity:1" fill="#b91c34" d="M 535.5,446.5 C 537.959,447.874 538.959,450.04 538.5,453C 536.911,461.564 536.244,470.064 536.5,478.5C 534.191,477.067 532.691,477.734 532,480.5C 527.846,478.347 525.18,475.014 524,470.5C 521.667,471.877 519.167,472.877 516.5,473.5C 515.887,472.02 515.554,470.687 515.5,469.5C 514.252,470.04 513.085,470.707 512,471.5C 511.88,465.26 514.713,460.76 520.5,458C 526.338,456.833 531.171,454 535,449.5C 535.483,448.552 535.649,447.552 535.5,446.5 Z"/></g>
<g><path style="opacity:1" fill="#bf3037" d="M 510.5,448.5 C 513.226,448.264 515.559,449.097 517.5,451C 513.928,452.405 510.261,452.738 506.5,452C 506.043,451.586 505.709,451.086 505.5,450.5C 507.291,449.83 508.958,449.163 510.5,448.5 Z"/></g>
<g><path style="opacity:1" fill="#bb2335" d="M 500.5,452.5 C 501.93,452.421 503.264,452.754 504.5,453.5C 505.308,455.423 505.808,457.423 506,459.5C 513.02,463.925 512.187,467.258 503.5,469.5C 502.571,468.311 502.238,466.978 502.5,465.5C 499.972,466.011 497.472,466.678 495,467.5C 491.608,467.166 490.774,465.5 492.5,462.5C 493.729,461.719 495.062,461.219 496.5,461C 490.828,459.561 490.328,457.395 495,454.5C 496.944,455.439 498.611,456.773 500,458.5C 499.386,456.46 499.552,454.46 500.5,452.5 Z"/></g>
<g><path style="opacity:1" fill="#bb2535" d="M 482.5,465.5 C 487.056,465.554 489.556,467.888 490,472.5C 490.75,473.126 491.584,473.626 492.5,474C 498.407,475.361 504.407,475.861 510.5,475.5C 510.206,479.115 511.206,482.282 513.5,485C 508.942,484.705 504.609,483.372 500.5,481C 497.62,480.316 494.787,480.483 492,481.5C 490.832,480.491 489.665,479.491 488.5,478.5C 487.238,480.381 485.571,481.714 483.5,482.5C 481.085,482.281 480.085,480.948 480.5,478.5C 479.167,478.5 477.833,478.5 476.5,478.5C 475.819,473.845 477.819,471.178 482.5,470.5C 481.833,469.833 481.167,469.167 480.5,468.5C 481.193,467.482 481.859,466.482 482.5,465.5 Z"/></g>
<g><path style="opacity:1" fill="#ba2235" d="M 546.5,455.5 C 552.406,455.082 556.906,457.416 560,462.5C 561.98,467.277 562.98,472.277 563,477.5C 565.024,475.116 567.191,474.949 569.5,477C 566.288,479.731 564.788,483.231 565,487.5C 563.045,488.453 561.378,489.787 560,491.5C 558.287,495.873 555.787,499.707 552.5,503C 547.86,505.15 543.36,504.984 539,502.5C 538.333,503.833 538.333,505.167 539,506.5C 541.409,508.62 543.909,510.62 546.5,512.5C 543.18,518.986 538.347,523.986 532,527.5C 529.976,527.2 529.476,526.367 530.5,525C 527.085,524.734 525.085,526.4 524.5,530C 520.019,532.846 518.186,531.679 519,526.5C 520.167,525.333 521.333,524.167 522.5,523C 519.912,524.09 517.579,523.59 515.5,521.5C 516.915,518.619 519.249,516.953 522.5,516.5C 521.146,514.538 521.813,513.538 524.5,513.5C 527.766,513.452 529.266,515.118 529,518.5C 532.829,521.345 535.329,520.345 536.5,515.5C 536.392,514.558 536.059,513.725 535.5,513C 530.747,510.542 526.247,507.708 522,504.5C 518.263,495.897 521.097,492.064 530.5,493C 525.703,489.517 520.536,486.684 515,484.5C 510.083,476.703 512.25,473.036 521.5,473.5C 524.473,477.14 527.806,480.473 531.5,483.5C 532.333,482.5 533.167,481.5 534,480.5C 535.98,485.23 536.98,490.23 537,495.5C 539.633,500.732 543.799,502.565 549.5,501C 553.858,498.773 556.024,495.273 556,490.5C 553.034,487.735 550.367,488.068 548,491.5C 547.061,486.275 549.228,483.608 554.5,483.5C 554.64,481.876 553.973,480.71 552.5,480C 555.047,479.933 557.214,479.099 559,477.5C 560.759,470.991 559.259,465.491 554.5,461C 553.365,460.251 552.365,460.417 551.5,461.5C 553.721,463.373 555.054,465.707 555.5,468.5C 554.25,472.591 552.25,476.258 549.5,479.5C 549.216,473.934 547.05,469.268 543,465.5C 542.333,463.5 542.333,461.5 543,459.5C 544.376,458.295 545.542,456.962 546.5,455.5 Z"/></g>
<g><path style="opacity:1" fill="#ba2135" d="M 508.5,488.5 C 510.857,488.337 513.19,488.503 515.5,489C 517.49,490.751 519.823,491.751 522.5,492C 520.667,492.5 519.5,493.667 519,495.5C 518.223,498.429 518.39,501.263 519.5,504C 514.076,504.713 509.076,506.547 504.5,509.5C 503.713,508.758 503.047,507.925 502.5,507C 500.687,507.046 499.021,506.88 497.5,506.5C 496.103,508.606 494.27,510.273 492,511.5C 490.648,509.406 490.148,507.073 490.5,504.5C 489.07,504.421 487.736,504.754 486.5,505.5C 484.471,500.683 486.138,498.516 491.5,499C 487.182,494.667 488.182,493.001 494.5,494C 496.705,500.174 501.039,502.174 507.5,500C 507.957,499.586 508.291,499.086 508.5,498.5C 504.514,495.13 504.514,491.797 508.5,488.5 Z"/></g>
</svg>
